<?xml version="1.0" encoding="utf-8"?>
<!-- Generator: Adobe Illustrator 25.3.1, SVG Export Plug-In . SVG Version: 6.00 Build 0)  -->
<svg version="1.1" id="Layer_1" xmlns="http://www.w3.org/2000/svg" xmlns:xlink="http://www.w3.org/1999/xlink" x="0px" y="0px"
	 viewBox="0 0 708.8 342.6" style="enable-background:new 0 0 708.8 342.6;" xml:space="preserve">
<style type="text/css">
	.st0{fill:#FFFFFF;stroke:#99D1FF;stroke-width:0.3636;stroke-miterlimit:10;}
	.st1{fill:#FFFFFF;stroke:#FFEFC7;stroke-width:0.3636;stroke-miterlimit:10;}
	.st2{fill:#FFFFFF;}
	.st3{fill:#FFFFFF;stroke:#C6FFA4;stroke-width:0.3636;stroke-miterlimit:10;}
</style>
<g>
	<g>
		<path d="M218.6,197.8c15.4-34.7,39.9-69.9,49.1-82.4c1.5-2.1,0.1-5-2.5-5.2l-7.4-0.5c-2.9-0.2-5.6,1.2-7.2,3.7
			c-7,11.2-26.1,43.7-41.9,80.1c-12.2-3.6-24.8-5.5-35.8-7.6c6.7-14.2,11.4-27.4,13.8-37.7c3.9-16.4,2.5-26.8-4.3-31.7
			c-8.1-5.8-21-1.1-28.5,2.6c-3.1,1.5-4.2,5.4-2.4,8.4l0,0c5.3-3.3,13.5-7.5,20.2-2.6c4.4,3.2,3.2,10.2,1.2,23.8
			c-1.6,10.5-7.1,21.7-14,36.1c-55.8-0.9-90.1,5-110.7,11.5c-18.9,6-34.6,19.7-42.2,38c-3.1,7.3-4.9,15.4-3.1,22.6
			C6,269.5,17,284.4,52,284.4c0.7,0,1.3,0,2,0c54.5-0.9,94-46.3,115.7-89.2c12.5,1.2,22.2,3.6,34.6,7.3
			c-8.6,21.3-16.3,40.5-13.4,57.3c0.8,4.6,3.7,8.6,7.8,10.9l0,0l0.9,0.5c1.9,1.1,3.8,1.5,5.6,1.5c3.8,0,7.3-2,10.2-4.4
			c2.7-2.3,2.4-6.6-0.5-8.6h0c0,0-1.7,2.3-4,4.2c-3.4,2.8-8.6,0.6-9.2-3.7c-2.5-17,4.2-33.8,12.8-54.8c6.4,1.2,6.4,1.5,9.7,3.7
			c5,3.4,0.3,11.6,0.3,11.7l0.6,0.8c1.6,2.2,4.4,3.5,7,2.8c1.7-0.5,3-1.5,3.1-3.3c0.2-3.1,0.5-8.1-1.5-11.6
			C230.9,204.4,226.2,199.5,218.6,197.8z M54.3,274.9c-25.7,1.9-34.7-5-38.4-20.4c-3.2-13.1,0.8-21.7,6.1-28.1
			c14.2-17.3,28-20.2,32.3-21.6c12-4.1,25.6-8.2,68.6-11.1c13.1-0.9,18.4-1.2,32.6-1.5C131.3,230.7,105.1,271.1,54.3,274.9z"/>
		<path d="M428.9,247c-14.9,8.5-32.5,11.9-30.2-10.9c8.4-4.2,52.1-34,35.5-48.2c-1.6-1.4-3.8-1.9-5.9-1.6
			c-16.5,2.4-34.7,23.7-37.8,45.9c-11,9.2-25.6,29.6-42.5,29.1c54.4-40.1,42.1-140.5-14-39.8c-1.7-15.1,2.4-29.8-8.6-32.7
			c-3.7-0.1-9.5,0.3-8.8,5.5c3.5,23.5-21.1,52.4-40,43.3c39.7-64.4-28.6-84.5-25.5-23c-30.8,32.5-6.4,75.7,22.4,28.7
			c18.5,7.2,34.4,0.2,47.1-28.9c0.5,7.1,1.5,7.3,0.9,21.2c-20.7,25.7-82.8,110.1-52.6,107.2c29.3-4.5,51.8-66.3,58.6-89.7
			c1-3.5,3.4-7.5,4.9-10.9c2.6-5.7-2.4,3,0,0c0,0,25.2-51.2,32.5-51.1c35.8,0.6-35.9,99.2-32.5,51.1c-17.4-2.9-8.8,20.2-8.8,20.2
			c20.2,18.3,51.4-3.9,66.6-20.4c4,31.3,36.8,16.4,48,6.3c0,0,5.5-4.1,9.7-8.1c3.7-3.5,6.3-7.1,7.1-8c2.2-2.4-1.2-7-3.8-4.9
			c-0.7,0.6-4.8,5.5-9.3,10C438.9,240,432.6,244.8,428.9,247z M411.7,202.5c1.4-1.4,2.8-2.7,4.4-3.9c4.8-3.5,8.7-4.7,12.1-3.7
			c0.8,0.2-0.4-1.6,0,0c1.3,6-5.9,15.5-12.9,21.4c-5.6,4.7-16,12.2-16,12.2C399.6,218.5,405.9,208.5,411.7,202.5z M254.6,252.5
			c-12.7,4.1-2.8-21.5,1.2-29.7c0.3,0.6,8.1,13.7,12.8,15.7C264.7,244.9,259.1,250.5,254.6,252.5z M271.8,233.6
			c-5.7-2-10.1-10.3-11.9-16.6c3.7-5.7,8-7.5,11.3-9.7c2.7-1.8,1.2-4.9-0.9-6.5c-5.2-4.4-8.5,1.5-11.9,6
			C263.7,165.8,292.3,190.9,271.8,233.6z M316.4,259.6c-45.8,108.1-71.8,87.5,2.8-11.5C318.3,251.8,317.4,255.6,316.4,259.6z"/>
		<path d="M485.2,259.4c-4.8,0.8-9.7,0.5-14.3-1.1c-7.3-2.7-8.8-6.7-8.1-11c0.4-2.3,4.3-3.1,6.5-2.8c2.3,0.4,2.9,6.8,13.2,6
			c7-0.6,18.9-7,23.8-17.4c3.5-7.4,4.9-17,0-22.1c-7.9-8.1-17.3-2.7-17.4-2.6c-2.2,0.5-3.6-0.2-4.3-2.6c-0.8-2.8,0.8-6.3,3.3-7.7
			c23.3-13.2,26.7-21.4,25.4-26.3c-0.9-3.4-1.5-6.1-8.1-6.1c0,0-0.1,0-0.1,0c-6.6,0-14.3,2.6-16,8.5c-0.5,1.6-1.6,2.9-3.3,3.2
			c-3.3,0.5-5.5-2.4-4.8-5.2c2.7-10.2,17-18.4,27-18.4c0,0,14.8-0.9,19.2,13.4c2.7,8.7-2.6,17.9-18.3,28.8c0,0,0,0,0,0
			c4.6,0.8,10.3,3.2,13.7,7c5.9,6.8,4.4,20.9-3.4,34.6C511.7,250.8,496.9,257.4,485.2,259.4z"/>
		<path d="M611.1,160.3"/>
		<path d="M539.5,254.4c-4.3-4.1,0.2-11.3,5.3-7.5c6.1,3.8,15.2,3.2,21-0.7c13.3-8.7,26.8-31.9,14.6-44.2c-7.8-9.4-17.9-6.1-17-26.7
			c1-13.1,8.4-19.8,8.6-19.8l38.2-2.3c11.3-1.1,0.2,14.4-3.2,16c0,0-26.5-0.3-26.5-0.3c-10.7,1-4.9,15.3,0.9,17.8
			c1.2,0.5,2.4,1.1,3.5,1.7c8.4,4.8,20.9,13.5,10.7,40.9C581.2,260.2,552.3,266.1,539.5,254.4z"/>
		<path d="M594,123.6c-0.7,0-1.3-0.2-1.9-0.6c-8.8-6.6-50.7-3.1-64.5-2c-30,2.5-37.5-19.7-37.5-19.9c-0.5-1.6,0.4-3.4,2-3.9
			c1.6-0.5,3.4,0.4,3.9,2c0.3,0.8,6.2,17.7,31.1,15.6c40.7-3.4,61.3-2.4,68.7,3.2c1.4,1,1.6,3,0.6,4.3
			C595.8,123.2,594.9,123.6,594,123.6z"/>
		<path d="M598.9,120.7c-1,0-2.1-0.5-2.6-1.5c-4.5-7.4-19.2-9.6-32.1-11.5c-4.6-0.7-9-1.3-13-2.2c-17.5-3.8-28.7-25.4-29.2-26.3
			c-0.8-1.5-0.2-3.4,1.4-4.2c1.5-0.8,3.4-0.2,4.2,1.4c0.1,0.2,10.3,20,24.9,23.1c3.8,0.8,8.1,1.5,12.6,2.1
			c15,2.2,30.4,4.6,36.5,14.4c0.9,1.5,0.4,3.4-1,4.3C600,120.5,599.5,120.7,598.9,120.7z"/>
		<path d="M611.1,133.2c-1.7,0-3.1-1.4-3.1-3.1v-0.9c0-1.7,1.4-3.1,3.1-3.1s3.1,1.4,3.1,3.1v0.9
			C614.2,131.8,612.8,133.2,611.1,133.2z"/>
		<path d="M640.5,166.6c0,0-0.1,0-0.1,0c-1.7-0.1-3.1-1.5-3-3.2c0.5-14.3-19.6-27.4-19.8-27.5c-1.4-0.9-1.9-2.8-0.9-4.3
			c0.9-1.4,2.8-1.9,4.3-0.9c1,0.6,23.3,15.1,22.7,33C643.5,165.3,642.2,166.6,640.5,166.6z"/>
		<path d="M694.6,91.1l-13.1-1.7l14.2-3.5c0,0,9-7.3,4.7-15.7c-4-7.7-19-15.2-21.4-16.4c0.8,0,3.1-0.3,9.8-2.5
			c10.8-3.5,2.2-16,2.2-16s5.4-0.9,8.8-8.9c0.3-0.7-0.3-4.3-3.7-3.4c-1,0.2-7.5,6.3-8,5.8c-0.5-0.5,7-10,7.1-9.8
			c1.1,3.5,5.4,2.1,5.5,1.5c1.7-11.6-5.2-18-5.2-18c-2,15.7-36.1,49.1-48,62.8c-21.5,24.7-20.9,64-20.9,64l11.6,10.8
			c0,0,10.2-9.6,19.2-16.3c9-6.7,34.3-1.5,34.3-1.5s14.2,2.3,16.9-12.8S694.6,91.1,694.6,91.1z M687.3,67c3-0.2,7.6,3.3,7.6,6.4
			s-2,8.4-7.6,8.4c-3.1,0-8.1,0-8.4-5.8C678.7,73,681.5,67.3,687.3,67z M664.6,103.6c-8.3,4.9-24.4,10.4-30,18.3
			c0,0,2.8-44.4,22.5-43c11,0.8,13.4,7,13.3,12.4C670.4,95.8,668.4,101.4,664.6,103.6z M669.7,67.2c0,0-8.7,4.2-15.9,4.9
			c0,0,8.2-18.9,18.2-16.3C682,58.5,669.7,67.2,669.7,67.2z M676.3,41c0-3.1,2.2-4.2,5.2-4.2s5.8,1.2,5.8,4.2c0,3.1-2.5,5.5-5.5,5.5
			C678.7,46.5,676.3,44,676.3,41z M689.9,114.7c-3.1,0-11.1-1.5-11.1-7c0-7,3-11.9,9.6-11.9c3.1,0,10.8,3.5,10.8,10.5
			C699.2,109.3,696.3,114.7,689.9,114.7z"/>
		<path d="M689.9,141.4c0,0-1,4.7-4.1,7.3c-4.1,3.5-10.8,2.3-11.9-1.5c-3.2-18,14.2-9.6,14.2-9.6s1.7-11.6-16.9-12.8
			c-23-0.6-29.1,22.7-29.1,22.7s14-0.6,12.5,9.6c-1.5,10.2,9,23.8,23,23.3c14-0.6,18.6-9,18.3-20.4
			C695.7,148.7,689.9,141.4,689.9,141.4z M654.3,141.1c0-3.1,2.5-5.5,5.5-5.5s5.5,2.5,5.5,5.5s-2.5,5.5-5.5,5.5
			S654.3,144.1,654.3,141.1z M679.4,168c-11.6-0.6-18.8-12.3-18.8-12.3l28.4-0.1C689,155.6,691,168.6,679.4,168z"/>
		<path d="M633.5,71.6c0,0,0.9-2.6-1.5-6.7c-2.3-4.1-16-1.5-23.6,2.9S594,71.1,594,71.1s10.8-2.3,6.1-14c-4.3-10.9-25.4-6-41.7-3.2
			c-3.1,0.5-6.3,0.7-9.4,0.1c-13.9-2.3-11.5-13.3-21-6.3c-3.5,14.2,3.8,14.8,9.6,13.4c5.8-1.5,23.8-7.6,38.4,14.8
			c16.9,26,46.8,46.5,46.8,46.5c-0.9-11.1,4.1-23.6,5.5-29.1c1.5-5.5-8.1-8.7-8.1-8.7S623,76.3,633.5,71.6z M581.2,68.7
			c-3.1,0-5.5-2.5-5.5-5.5s2.5-5.5,5.5-5.5c3.1,0,5.5,2.5,5.5,5.5S584.2,68.7,581.2,68.7z M613.6,81.2c-4.4,10-0.9,24.3-0.9,24.3
			c-11.3-1-14.8-21-8.9-28.6C605.9,73.2,618,71.2,613.6,81.2z M621.2,75.4c0,0-2.7-5.1-0.1-6.9c2.6-1.9,8.1,1,6,1.5
			C621.9,71,621.2,75.4,621.2,75.4z"/>
	</g>
	<g>
		<path class="st0" d="M216.5,195.8c15.4-34.7,39.9-69.9,49.1-82.4c1.5-2.1,0.1-5-2.5-5.2l-7.4-0.5c-2.9-0.2-5.6,1.2-7.2,3.7
			c-7,11.2-26.1,43.7-41.9,80.1c-12.2-3.6-24.8-5.5-35.8-7.6c6.7-14.2,11.4-27.4,13.8-37.7c3.9-16.4,2.5-26.8-4.3-31.7
			c-8.1-5.8-21-1.1-28.5,2.6c-3.1,1.5-4.2,5.4-2.4,8.4l0,0c5.3-3.3,13.5-7.5,20.2-2.6c4.4,3.2,3.2,10.2,1.2,23.8
			c-1.6,10.5-7.1,21.7-14,36.1c-55.8-0.9-90.1,5-110.7,11.5c-18.9,6-34.6,19.7-42.2,38c-3.1,7.3-4.9,15.4-3.1,22.6
			C3.9,267.4,15,282.4,50,282.4c0.7,0,1.3,0,2,0c54.5-0.9,94-46.3,115.7-89.2c12.5,1.2,22.2,3.6,34.6,7.3
			c-8.6,21.3-16.3,40.5-13.4,57.3c0.8,4.6,3.7,8.6,7.8,10.9l0,0l0.9,0.5c1.9,1.1,3.8,1.5,5.6,1.5c3.8,0,7.3-2,10.2-4.4
			c2.7-2.3,2.4-6.6-0.5-8.6h0c0,0-1.7,2.3-4,4.2c-3.4,2.8-8.6,0.6-9.2-3.7c-2.5-17,4.2-33.8,12.8-54.8c6.4,1.2,6.4,1.5,9.7,3.7
			c5,3.4,0.3,11.6,0.3,11.7l0.6,0.8c1.6,2.2,4.4,3.5,7,2.8c1.7-0.5,3-1.5,3.1-3.3c0.2-3.1,0.5-8.1-1.5-11.6
			C228.8,202.3,224.1,197.4,216.5,195.8z M52.2,272.8c-25.7,1.9-34.7-5-38.4-20.4c-3.2-13.1,0.8-21.7,6.1-28.1
			c14.2-17.3,28-20.2,32.3-21.6c12-4.1,25.6-8.2,68.6-11.1c13.1-0.9,18.4-1.2,32.6-1.5C129.2,228.6,103.1,269.1,52.2,272.8z"/>
		<path class="st0" d="M426.8,244.9c-14.9,8.5-32.5,11.9-30.2-10.9c8.4-4.2,52.1-34,35.5-48.2c-1.6-1.4-3.8-1.9-5.9-1.6
			c-16.5,2.4-34.7,23.7-37.8,45.9c-11,9.2-25.6,29.6-42.5,29.1c54.4-40.1,42.1-140.5-14-39.8c-1.7-15.1,2.4-29.8-8.6-32.7
			c-3.7-0.1-9.5,0.3-8.8,5.5c3.5,23.5-21.1,52.4-40,43.3c39.7-64.4-28.6-84.5-25.5-23c-30.8,32.5-6.4,75.7,22.4,28.7
			c18.5,7.2,34.4,0.2,47.1-28.9c0.5,7.1,1.5,7.3,0.9,21.2c-20.7,25.7-82.8,110.1-52.6,107.2c29.3-4.5,51.8-66.3,58.6-89.7
			c1-3.5,3.4-7.5,4.9-10.9l0,0c0,0,25.2-51.2,32.5-51.1c35.8,0.6-35.9,99.2-32.5,51.1c-17.4-2.9-8,21.1-8,21.1
			c20.2,18.3,50.6-4.8,65.8-21.3c4,31.3,36.8,16.4,48,6.3c0,0,5.5-4.1,9.7-8.1c3.7-3.5,6.3-7.1,7.1-8c2.2-2.4-1.2-7-3.8-4.9
			c-0.7,0.6-4.8,5.5-9.3,10C436.8,237.9,430.5,242.8,426.8,244.9z M409.7,200.4c1.4-1.4,2.8-2.7,4.4-3.9c4.8-3.5,8.7-4.7,12.1-3.7
			c0.8,0.2-0.4-1.6,0,0c1.3,6-5.9,15.5-12.9,21.4c-5.6,4.7-16,12.2-16,12.2C397.5,216.4,403.8,206.4,409.7,200.4z M252.5,250.5
			c-12.7,4.1-2.8-21.5,1.2-29.7c0.3,0.6,8.1,13.7,12.8,15.7C262.6,242.8,257,248.4,252.5,250.5z M269.7,231.5
			c-5.7-2-10.1-10.3-11.9-16.6c3.7-5.7,8-7.5,11.3-9.7c2.7-1.8,1.2-4.9-0.9-6.5c-5.2-4.4-8.5,1.5-11.9,6
			C261.6,163.7,290.3,188.8,269.7,231.5z M313.3,259.8c-45.2,105.5-70.3,84.5,3.7-13.8c-0.7,2.9-1.4,6-2.2,9.1
			C314.5,256.7,314,258.3,313.3,259.8z"/>
		<path class="st1" d="M483.2,257.3c-4.8,0.8-9.7,0.5-14.3-1.1c-7.3-2.7-8.8-6.7-8.1-11c0.4-2.3,4.3-3.1,6.5-2.8
			c2.3,0.4,2.9,6.8,13.2,6c7-0.6,18.9-7,23.8-17.4c3.5-7.4,4.9-17,0-22.1c-7.9-8.1-17.3-2.7-17.4-2.6c-2.2,0.5-3.6-0.2-4.3-2.6
			c-0.8-2.8,0.8-6.3,3.3-7.7c23.3-13.2,26.7-21.4,25.4-26.3c-0.9-3.4-1.5-6.1-8.1-6.1c0,0-0.1,0-0.1,0c-6.6,0-14.3,2.6-16,8.5
			c-0.5,1.6-1.6,2.9-3.3,3.2c-3.3,0.5-5.5-2.4-4.8-5.2c2.7-10.2,17-18.4,27-18.4c0,0,14.8-0.9,19.2,13.4c2.7,8.7-2.6,17.9-18.3,28.8
			c0,0,0,0,0,0c4.6,0.8,10.3,3.2,13.7,7c5.9,6.8,4.4,20.9-3.4,34.6C509.7,248.7,494.8,255.3,483.2,257.3z"/>
		<path class="st2" d="M609.1,158.3"/>
		<path class="st1" d="M537.4,252.3c-4.3-4.1,0.2-11.3,5.3-7.5c6.1,3.8,15.2,3.2,21-0.7c13.3-8.7,26.8-31.9,14.6-44.2
			c-7.8-9.4-17.9-6.1-17-26.7c1-13.1,8.4-19.8,8.6-19.8l38.2-2.3c11.3-1.1,0.2,14.4-3.2,16c0,0-26.5-0.3-26.5-0.3
			c-10.7,1-4.9,15.3,0.9,17.8c1.2,0.5,2.4,1.1,3.5,1.7c8.4,4.8,20.9,13.5,10.7,40.9C579.2,258.1,550.3,264,537.4,252.3z"/>
		<g>
			<path class="st3" d="M591.9,121.5c-0.7,0-1.3-0.2-1.9-0.6c-8.8-6.6-50.7-3.1-64.5-2c-30,2.5-37.5-19.7-37.5-19.9
				c-0.5-1.6,0.4-3.4,2-3.9c1.6-0.5,3.4,0.4,3.9,2c0.3,0.8,6.2,17.7,31.1,15.6c40.7-3.4,61.3-2.4,68.7,3.2c1.4,1,1.6,3,0.6,4.3
				C593.8,121.1,592.8,121.5,591.9,121.5z"/>
			<path class="st3" d="M596.8,118.6c-1,0-2.1-0.5-2.6-1.5c-4.5-7.4-19.2-9.6-32.1-11.5c-4.6-0.7-9-1.3-13-2.2
				c-17.5-3.8-28.7-25.4-29.2-26.3c-0.8-1.5-0.2-3.4,1.4-4.2c1.5-0.8,3.4-0.2,4.2,1.4c0.1,0.2,10.3,20,24.9,23.1
				c3.8,0.8,8.1,1.5,12.6,2.1c15,2.2,30.4,4.6,36.5,14.4c0.9,1.5,0.4,3.4-1,4.3C598,118.5,597.4,118.6,596.8,118.6z"/>
			<path class="st3" d="M609.1,131.1c-1.7,0-3.1-1.4-3.1-3.1v-0.9c0-1.7,1.4-3.1,3.1-3.1s3.1,1.4,3.1,3.1v0.9
				C612.2,129.7,610.8,131.1,609.1,131.1z"/>
			<path class="st3" d="M638.4,164.6c0,0-0.1,0-0.1,0c-1.7-0.1-3.1-1.5-3-3.2c0.5-14.3-19.6-27.4-19.8-27.5
				c-1.4-0.9-1.9-2.8-0.9-4.3c0.9-1.4,2.8-1.9,4.3-0.9c1,0.6,23.3,15.1,22.7,33C641.5,163.3,640.1,164.6,638.4,164.6z"/>
			<path class="st3" d="M692.5,89.1l-13.1-1.7l14.2-3.5c0,0,9-7.3,4.7-15.7c-4-7.7-19-15.2-21.4-16.4c0.8,0,3.1-0.3,9.8-2.5
				c10.8-3.5,2.2-16,2.2-16s5.4-0.9,8.8-8.9c0.3-0.7-0.3-4.3-3.7-3.4c-1,0.2-7.5,6.3-8,5.8c-0.5-0.5,7-10,7.1-9.8
				c1.1,3.5,5.4,2.1,5.5,1.5c1.7-11.6-5.2-18-5.2-18c-2,15.7-36.1,49.1-48,62.8c-21.5,24.7-20.9,64-20.9,64l11.6,10.8
				c0,0,10.2-9.6,19.2-16.3c9-6.7,34.3-1.5,34.3-1.5s14.2,2.3,16.9-12.8C709.1,92.3,692.5,89.1,692.5,89.1z M685.2,64.9
				c3-0.2,7.6,3.3,7.6,6.4s-2,8.4-7.6,8.4c-3.1,0-8.1,0-8.4-5.8C676.7,70.9,679.4,65.2,685.2,64.9z M662.6,101.6
				c-8.3,4.9-24.4,10.4-30,18.3c0,0,2.8-44.4,22.5-43c11,0.8,13.4,7,13.3,12.4C668.4,93.7,666.4,99.3,662.6,101.6z M667.6,65.1
				c0,0-8.7,4.2-15.9,4.9c0,0,8.2-18.9,18.2-16.3C679.9,56.4,667.6,65.1,667.6,65.1z M674.2,38.9c0-3.1,2.2-4.2,5.2-4.2
				c3.1,0,5.8,1.2,5.8,4.2s-2.5,5.5-5.5,5.5S674.2,42,674.2,38.9z M687.9,112.6c-3.1,0-11.1-1.5-11.1-7c0-7,3-11.9,9.6-11.9
				c3.1,0,10.8,3.5,10.8,10.5C697.2,107.2,694.3,112.6,687.9,112.6z"/>
			<path class="st3" d="M687.9,139.4c0,0-1,4.7-4.1,7.3c-4.1,3.5-10.8,2.3-11.9-1.5c-3.2-18,14.2-9.6,14.2-9.6s1.7-11.6-16.9-12.8
				c-23-0.6-29.1,22.7-29.1,22.7s14-0.6,12.5,9.6c-1.5,10.2,9,23.8,23,23.3c14-0.6,18.6-9,18.3-20.4S687.9,139.4,687.9,139.4z
				 M652.2,139c0-3.1,2.5-5.5,5.5-5.5c3.1,0,5.5,2.5,5.5,5.5s-2.5,5.5-5.5,5.5C654.7,144.6,652.2,142.1,652.2,139z M677.3,165.9
				c-11.6-0.6-18.8-12.3-18.8-12.3l28.4-0.1C686.9,153.5,688.9,166.5,677.3,165.9z"/>
			<path class="st3" d="M631.4,69.6C631.4,69.6,631.4,69.6,631.4,69.6c0,0,0.9-2.6-1.5-6.7c-2.3-4.1-16-1.5-23.6,2.9
				c-7.4,4.3-14.3,3.2-14.5,3.2c0,0,0,0,0,0c0.4-0.1,10.7-2.5,6.1-14c-4.3-10.9-25.4-6-41.7-3.2c-3.1,0.5-6.3,0.7-9.4,0.1
				c-11.4-1.9-11.8-9.7-16.9-8.4c-2.6,0.6-4.4,3-4.8,5.6c-1.6,10.9,5,11.3,10.3,10c5.8-1.5,23.8-7.6,38.4,14.8
				c16.8,25.9,46.6,46.4,46.8,46.5c0,0,0,0,0,0c-0.9-11,4.1-23.5,5.5-29.1c1.4-5.5-8.1-8.7-8.1-8.7c0,0,0,0,0,0
				C618.1,82.6,621,74.2,631.4,69.6z M579.1,66.7c-3.1,0-5.5-2.5-5.5-5.5c0-3.1,2.5-5.5,5.5-5.5s5.5,2.5,5.5,5.5
				C584.6,64.2,582.2,66.7,579.1,66.7z M611.5,79.2c-4.3,10-0.9,24.2-0.9,24.3c0,0,0,0,0,0c-11.3-1-14.8-21-8.9-28.6
				C603.8,71.2,615.9,69.1,611.5,79.2z M619.1,73.4c0,0-2.7-5.1-0.1-6.9s8.1,1,6,1.5C619.8,69,619.1,73.4,619.1,73.4z"/>
		</g>
	</g>
	<polygon class="st2" points="330.3,237.2 329.5,244.6 322.8,260.7 322.2,259.9 321.4,261.8 318.8,260.6 318.7,241.3 324,236.5 	"/>
</g>
</svg>
